{"title":"My.Daddy.Is.in.Heaven.2017.HDRip.XviD.AC3.LLG","magnet":"magnet:?xt=urn:btih:bc5321f498f8e320b3b142364edcccb5c6a16b55&dn=My.Daddy.Is.in.Heaven.2017.HDRip.XviD.AC3.LLG&tr=udp%3A%2F%2Ftracker.leechers-paradise.org%3A6969&tr=udp%3A%2F%2Fzer0day.ch%3A1337&tr=udp%3A%2F%2Fopen.demonii.com%3A1337&tr=udp%3A%2F%2Ftracker.coppersurfer.tk%3A6969&tr=udp%3A%2F%2Fexodus.desync.com%3A6969","uploader":"LifeLongg","categoryP":"video","categoryS":"movies","size":"1063813872","seeders":"9","leechers":"14","description":"******************************Screenshots:********************\r\n <a href=\"\nhttp://picserver4u.com/d/0681.html\" rel=\"nofollow\" target=\"_NEW\">\nhttp://picserver4u.com/d/0681.html</a>\r\n <a href=\"\nhttp://picserver4u.com/d/0682.html\" rel=\"nofollow\" target=\"_NEW\">\nhttp://picserver4u.com/d/0682.html</a>\r\n <a href=\"\nhttp://picserver4u.com/d/0683.html\" rel=\"nofollow\" target=\"_NEW\">\nhttp://picserver4u.com/d/0683.html</a>\r\n <a href=\"\nhttp://picserver4u.com/d/0684.html\" rel=\"nofollow\" target=\"_NEW\">\nhttp://picserver4u.com/d/0684.html</a>\r\n <a href=\"\nhttp://picserver4u.com/d/0685.html\" rel=\"nofollow\" target=\"_NEW\">\nhttp://picserver4u.com/d/0685.html</a>\r\n\r\n************************************************************** \r\n\r\nComplete name                            : My.Daddy.Is.in.Heaven.2017.HDRip.XviD.AC3.LLG.mp4\r\nFormat                                   : MPEG-4\r\nFormat profile                           : Base Media\r\nCodec ID                                 : isom (isom/iso2/avc1/mp41)\r\nFile size                                : 991 MiB\r\nDuration                                 : 1 h 35 min\r\nOverall bit rate                         : 1 456 kb/s\r\nWriting application                      : Lavf57.56.101\r\n\r\nVideo\r\nID                                       : 1\r\nFormat                                   : AVC\r\nFormat/Info                              : Advanced Video Codec\r\nFormat profile                           : <a href=\"/cdn-cgi/l/email-protection\" class=\"__cf_email__\" data-cfemail=\"733b1a141b333f40\">[email&#xA0;protected]</a>\r\nFormat settings                          : CABAC / 4 Ref Frames\r\nFormat settings, CABAC                   : Yes\r\nFormat settings, RefFrames               : 4 frames\r\nCodec ID                                 : avc1\r\nCodec ID/Info                            : Advanced Video Coding\r\nDuration                                 : 1 h 35 min\r\nBit rate                                 : 1 200 kb/s\r\nWidth                                    : 720 pixels\r\nHeight                                   : 400 pixels\r\nDisplay aspect ratio                     : 16:9\r\nFrame rate mode                          : Constant\r\nFrame rate                               : 23.976 (23976/1000) FPS\r\nColor space                              : YUV\r\nChroma subsampling                       : 4:2:0\r\nBit depth                                : 8 bits\r\nScan type                                : Progressive\r\nBits/(Pixel*Frame)                       : 0.174\r\nStream size                              : 814 MiB (82%)\r\n\r\nAudio\r\nID                                       : 2\r\nFormat                                   : AC-3\r\nFormat/Info                              : Audio Coding 3\r\nCodec ID                                 : ac-3\r\nDuration                                 : 1 h 35 min\r\nBit rate mode                            : Constant\r\nBit rate                                 : 256 kb/s\r\nChannel(s)                               : 6 channels\r\nChannel positions                        : Front: L C R, Side: L R, LFE\r\nSampling rate                            : 48.0 kHz\r\nFrame rate                               : 31.250 FPS (1536 SPF)\r\nBit depth                                : 16 bits\r\nCompression mode                         : Lossy\r\nStream size                              : 174 MiB (18%)\r\nService kind                             : Complete Main\r\nDefault                                  : Yes\r\nAlternate group                          : 1","last_updated":"2018-04-23T12:13:22.519Z","parsed":{"xt":"urn:btih:bc5321f498f8e320b3b142364edcccb5c6a16b55","dn":"My.Daddy.Is.in.Heaven.2017.HDRip.XviD.AC3.LLG","tr":["udp://exodus.desync.com:6969","udp://open.demonii.com:1337","udp://tracker.coppersurfer.tk:6969","udp://tracker.leechers-paradise.org:6969","udp://zer0day.ch:1337"],"infoHash":"bc5321f498f8e320b3b142364edcccb5c6a16b55","infoHashBuffer":{"type":"Buffer","data":[188,83,33,244,152,248,227,32,179,177,66,54,78,220,204,181,198,161,107,85]},"name":"My.Daddy.Is.in.Heaven.2017.HDRip.XviD.AC3.LLG","announce":["udp://exodus.desync.com:6969","udp://open.demonii.com:1337","udp://tracker.coppersurfer.tk:6969","udp://tracker.leechers-paradise.org:6969","udp://zer0day.ch:1337"],"urlList":[]}}